<svg xmlns="http://www.w3.org/2000/svg" width="140.156" height="180.65" viewBox="0 0 140.156 180.65"><g transform="translate(-890.345 -450.484)"><path d="M64.009,89.055H55.117V66.542c15.226-3.048,26.225-15.328,24.758-29.576L76.343,2.783A3.352,3.352,0,0,0,72.854,0H23.167a3.37,3.37,0,0,0-3.5,2.783L16.138,36.966c-1.473,14.251,9.53,26.525,24.758,29.6V89.055H32c-4.918,0-8.892,3.432-8.892,7.677a1.682,1.682,0,0,0,1.778,1.535H71.114a1.682,1.682,0,0,0,1.778-1.535C72.9,92.491,68.92,89.055,64.009,89.055ZM29.721,9.213H66.3l1.573,15.354H28.134Z" transform="translate(950.495 532.866)" fill="#420065"/><path d="M102.348,15.524,88.651,1.005a3.1,3.1,0,0,0-4.566,0L79.519,5.843a3.569,3.569,0,0,0,0,4.84L64.056,27.075A24.726,24.726,0,0,0,35.725,32.9L3.763,66.784a14.274,14.274,0,0,0,0,19.36l18.263,19.362a12.4,12.4,0,0,0,18.263,0L72.252,71.624a28.551,28.551,0,0,0,5.5-30.031L93.214,25.2a3.129,3.129,0,0,0,4.591,0l4.566-4.84A3.611,3.611,0,0,0,102.348,15.524Zm-66.185,75L17.9,71.162l24.618-26.1L60.781,64.429Z" transform="translate(890.365 450.482)" fill="#420065"/></g></svg>