<svg xmlns="http://www.w3.org/2000/svg" width="640.005" height="512.045" viewBox="0 0 640.005 512.045"><path d="M639.4,433.6a39.809,39.809,0,0,0-52.12-21.62l-22.12,9.249-38.75-101.1c47.87-34.1,64.87-100.2,34.5-152.7l-86.62-150.5c-8-13.87-24.1-19.75-39.1-13.62l-114.2,47.37L205.8,2.415a32.064,32.064,0,0,0-40,13.625L79.15,166.5C48.9,219,65.78,284.3,113.6,319.2L74.85,421.1l-22.07-9.2A39.854,39.854,0,0,0,.66,433.52a7.938,7.938,0,0,0,4.25,10.5l162.4,67.37c3.1,1.75,8.624-.125,10.37-4.249a40.238,40.238,0,0,0-21.62-52.37l-22.12-9.124,39.37-103.6c4.5.5,8.874,1.25,13.12,1.25,51.75,0,99.37-32.1,113.4-85.24l20.25-75.36,20.25,75.36c13.1,52.24,61.62,85.24,113.4,85.24,4.25,0,8.624-.75,13.12-1.25l39.25,103.6-22.12,9.124c-20.37,8.5-30.12,31.1-21.62,52.37a7.979,7.979,0,0,0,10.5,4.249l162.4-67.37A8.119,8.119,0,0,0,639.4,433.6ZM275.9,162.1,163.8,115.6l36.5-63.37L294.8,91.4Zm88.2,0L345.23,91.36l94.49-39.12,36.5,63.37Z" transform="translate(-0.006 0.001)" fill="#420065"/></svg>