<svg xmlns="http://www.w3.org/2000/svg" width="512" height="512" viewBox="0 0 512 512"><g transform="translate(-704 -284)"><path d="M184,0a56.017,56.017,0,0,1,56,56V456a56.006,56.006,0,0,1-111.7,5.9A62.8,62.8,0,0,1,112,464a64.057,64.057,0,0,1-60.41-85.2,80.006,80.006,0,0,1-5.82-147.1A65.749,65.749,0,0,1,32,192a64.116,64.116,0,0,1,50.41-62.6A64.031,64.031,0,0,1,128.3,49.93,56,56,0,0,1,184,0ZM383.7,49.93A64.082,64.082,0,0,1,432,112a62.5,62.5,0,0,1-2.4,17.4A64.127,64.127,0,0,1,480,192a65.27,65.27,0,0,1-13.8,39.7,79.992,79.992,0,0,1-5.8,147.1A64.032,64.032,0,0,1,400,464a62.8,62.8,0,0,1-16.3-2.1A56.006,56.006,0,0,1,272,456V56a56.016,56.016,0,0,1,111.7-6.07Z" transform="translate(704 284)" fill="#420065"/><path d="M147,67.5c0,20.122-14.109,35.839-31.5,35.839a29.082,29.082,0,0,1-21.853-9.706L62.77,111.182a41.371,41.371,0,0,1-.066,4.443,39,39,0,0,1,.066,4.443l30.877,17.546A29.4,29.4,0,0,1,115.5,127.571c17.391,0,31.5,15.717,31.5,35.839,0,19.786-14.109,35.839-31.5,35.839C97.814,199.25,84,183.2,84,163.411a35.921,35.921,0,0,1,.23-4.443L53.353,141.422A29.4,29.4,0,0,1,31.5,151.464c-17.4,0-31.5-16.053-31.5-35.839C0,95.5,14.1,79.786,31.5,79.786A29.4,29.4,0,0,1,53.353,89.828L84.23,72.282A44.352,44.352,0,0,1,84,67.839C84,48.046,97.814,32,115.5,32,132.891,32,147,48.046,147,67.839ZM31.2,127.235c6.1,0,10.5-5,10.5-11.946,0-6.272-4.4-11.946-10.5-11.946-5.5,0-10.5,5.675-10.5,11.946C20.7,122.233,25.7,127.235,31.2,127.235Zm84.3-71.679c-5.808,0-10.5,5.675-10.5,11.946,0,6.944,4.692,11.946,10.5,11.946s10.5-5,10.5-11.946C126,61.231,121.308,55.557,115.5,55.557Zm0,119.8c5.808,0,10.5-5.339,10.5-11.946s-4.692-11.946-10.5-11.946S105,156.8,105,163.411,109.692,175.357,115.5,175.357Z" transform="translate(779 384.295)" fill="#fff"/><path d="M147,67.5c0,20.122-14.109,35.839-31.5,35.839a29.082,29.082,0,0,1-21.853-9.706L62.77,111.182a41.371,41.371,0,0,1-.066,4.443,39,39,0,0,1,.066,4.443l30.877,17.546A29.4,29.4,0,0,1,115.5,127.571c17.391,0,31.5,15.717,31.5,35.839,0,19.786-14.109,35.839-31.5,35.839C97.814,199.25,84,183.2,84,163.411a35.921,35.921,0,0,1,.23-4.443L53.353,141.422A29.4,29.4,0,0,1,31.5,151.464c-17.4,0-31.5-16.053-31.5-35.839C0,95.5,14.1,79.786,31.5,79.786A29.4,29.4,0,0,1,53.353,89.828L84.23,72.282A44.352,44.352,0,0,1,84,67.839C84,48.046,97.814,32,115.5,32,132.891,32,147,48.046,147,67.839ZM31.2,127.235c6.1,0,10.5-5,10.5-11.946,0-6.272-4.4-11.946-10.5-11.946-5.5,0-10.5,5.675-10.5,11.946C20.7,122.233,25.7,127.235,31.2,127.235Zm84.3-71.679c-5.808,0-10.5,5.675-10.5,11.946,0,6.944,4.692,11.946,10.5,11.946s10.5-5,10.5-11.946C126,61.231,121.308,55.557,115.5,55.557Zm0,119.8c5.808,0,10.5-5.339,10.5-11.946s-4.692-11.946-10.5-11.946S105,156.8,105,163.411,109.692,175.357,115.5,175.357Z" transform="translate(779 480.295)" fill="#fff"/><path d="M0,67.5c0,20.122,14.556,35.839,32.5,35.839a30.435,30.435,0,0,0,22.545-9.706L86.9,111.182a40.106,40.106,0,0,0,.068,4.443,37.8,37.8,0,0,0-.068,4.443L55.043,137.614A30.747,30.747,0,0,0,32.5,127.571c-17.941,0-32.5,15.717-32.5,35.839C0,183.2,14.556,199.25,32.5,199.25c18.246,0,32.5-16.053,32.5-35.839a34.83,34.83,0,0,0-.237-4.443l31.854-17.546a30.747,30.747,0,0,0,22.545,10.042c17.948,0,32.5-16.053,32.5-35.839,0-20.122-14.549-35.839-32.5-35.839A30.747,30.747,0,0,0,96.612,89.828L64.758,72.282A43,43,0,0,0,65,67.839C65,48.046,50.743,32,32.5,32,14.556,32,0,48.046,0,67.839Zm119.462,59.732c-6.3,0-10.833-5-10.833-11.946,0-6.272,4.536-11.946,10.833-11.946,5.677,0,10.833,5.675,10.833,11.946C130.295,122.233,125.139,127.235,119.462,127.235ZM32.5,55.557c5.992,0,10.833,5.675,10.833,11.946,0,6.944-4.841,11.946-10.833,11.946s-10.832-5-10.832-11.946C21.665,61.231,26.506,55.557,32.5,55.557Zm0,119.8c-5.992,0-10.832-5.339-10.832-11.946s4.841-11.946,10.832-11.946S43.33,156.8,43.33,163.411,38.489,175.357,32.5,175.357Z" transform="translate(990.344 384.295)" fill="#fff"/><path d="M0,67.5c0,20.122,14.556,35.839,32.5,35.839a30.435,30.435,0,0,0,22.545-9.706L86.9,111.182a40.106,40.106,0,0,0,.068,4.443,37.8,37.8,0,0,0-.068,4.443L55.043,137.614A30.747,30.747,0,0,0,32.5,127.571c-17.941,0-32.5,15.717-32.5,35.839C0,183.2,14.556,199.25,32.5,199.25c18.246,0,32.5-16.053,32.5-35.839a34.83,34.83,0,0,0-.237-4.443l31.854-17.546a30.747,30.747,0,0,0,22.545,10.042c17.948,0,32.5-16.053,32.5-35.839,0-20.122-14.549-35.839-32.5-35.839A30.747,30.747,0,0,0,96.612,89.828L64.758,72.282A43,43,0,0,0,65,67.839C65,48.046,50.743,32,32.5,32,14.556,32,0,48.046,0,67.839Zm119.462,59.732c-6.3,0-10.833-5-10.833-11.946,0-6.272,4.536-11.946,10.833-11.946,5.677,0,10.833,5.675,10.833,11.946C130.295,122.233,125.139,127.235,119.462,127.235ZM32.5,55.557c5.992,0,10.833,5.675,10.833,11.946,0,6.944-4.841,11.946-10.833,11.946s-10.832-5-10.832-11.946C21.665,61.231,26.506,55.557,32.5,55.557Zm0,119.8c-5.992,0-10.832-5.339-10.832-11.946s4.841-11.946,10.832-11.946S43.33,156.8,43.33,163.411,38.489,175.357,32.5,175.357Z" transform="translate(990.344 480.295)" fill="#fff"/></g></svg>