<svg xmlns="http://www.w3.org/2000/svg" width="512" height="432.003" viewBox="0 0 512 432.003"><path d="M152.1,38.16a24.019,24.019,0,0,1,1.7,33.9L81.84,152.1c-4.41,4.8-10.63,7.7-17.21,7-6.58,1.1-12.94-1.5-17.6-7l-40-40c-9.372-8.5-9.372-23.7,0-33.07a24,24,0,0,1,33.941,0L63.08,101.1,118.2,39.94a24,24,0,0,1,33.9-1.78Zm0,160.04a24.014,24.014,0,0,1,1.7,33.9l-71.96,80c-4.41,4.8-10.63,7.7-17.21,7-6.58,1.1-12.94-1.5-17.6-7l-40-40c-9.372-8.5-9.372-23.7,0-33.1a24.133,24.133,0,0,1,33.941,0l22.11,22.1,55.12-61.2a24.014,24.014,0,0,1,33.9-1.7ZM224,96a31.985,31.985,0,0,1,32-32H480a32,32,0,0,1,0,64H256a31.966,31.966,0,0,1-32-32Zm0,160a31.966,31.966,0,0,1,32-32H480a32,32,0,0,1,0,64H256A31.966,31.966,0,0,1,224,256ZM160,416a31.966,31.966,0,0,1,32-32H480a32,32,0,0,1,0,64H192A31.966,31.966,0,0,1,160,416ZM0,416a48,48,0,1,1,48,48A48.006,48.006,0,0,1,0,416Z" transform="translate(0 -31.997)" fill="#420065"/></svg>